<?xml version="1.0" encoding="iso-8859-1"?>
<!-- Generator: Adobe Illustrator 22.1.0, SVG Export Plug-In . SVG Version: 6.00 Build 0)  -->
<svg version="1.1" id="Capa_1" xmlns="http://www.w3.org/2000/svg" xmlns:xlink="http://www.w3.org/1999/xlink" x="0px" y="0px"
	 viewBox="0 0 1080 1350" style="enable-background:new 0 0 1080 1350;" xml:space="preserve">
<g>
	<path style="fill:#D2A77B;" d="M503.5,527.5c-13.218,3.84-1.799,31.032,5,43c6.799,11.968,5.972,17.603,18.424,23.47
		c10.862,5.117,22.296,10.259,34.292,9.747c10.234-0.437,19.789-4.954,29.052-9.325c11.093-5.234,40.028-19.655,52.231-20.892
		s17.236,7.505,25,17c11.113,13.591-1.955,37.756-8.785,53.929c-12.847,30.424-34.032,56.852-58.754,78.75
		c-10.735,9.509-23.056,18.592-37.349,19.77c-14.293,1.177-30.314-8.842-30.567-23.181c-11.16,2.959-21.373,8.622-31.762,13.658
		c-62.132,30.114-132.169,38.363-200.375,49.096c-11.778,1.853-23.862,3.906-34.091,10.033
		c-7.872,4.716-14.417,11.724-22.983,15.014c-6.341,2.435-13.288,2.63-20.079,2.794c-14.085,0.342-28.171,0.683-42.256,1.025
		c-11.209,0.272-22.998,0.413-32.878-4.888c-14.938-8.015-15.957-28.087-17.123-45c-1.797-26.067,0.22-49.987,7.512-75.077
		c8.493-29.22,17.022-58.54,29.29-86.387c2.473-5.613,5.107-12.096,2.449-17.624c-1.431-2.977-0.608-7.93-3.251-9.912
		c-8.035-6.025-13.965-11.975-22-18c-0.201-13.699,7.683-20.277,19-28c11.589-7.909,24.411-15.091,36-23
		c6.471-4.417,12.621-5.931,16-13c7.437-15.56-6.2-38.718-2.619-55.588c3.603-16.976,21.065-26.413,34.728-37.113
		c28.697-22.473,41.515-62.18,75.891-74.298c14.959-5.274,37.026-2.058,52.854-1.027c18.746,1.221,37.999,3.794,54.268,13.188
		c20.857,12.043,45.023,25.341,55.878,46.84c22.323,44.208,26.993,106.217,5.053,150.616"/>
	<g>
		<path style="fill:#D2A77B;" d="M502.171,522.679c-12.548,4.294-10.37,19.159-7.22,29.247c1.897,6.074,4.458,12.004,7.373,17.656
			c2.901,5.627,5.502,11.588,8.703,17.038c3.511,5.977,8.84,9.538,15.008,12.434c8.53,4.006,17.321,7.84,26.723,9.158
			c17.289,2.424,32.639-5.984,47.739-13.178c12.176-5.801,24.596-12.055,37.67-15.573c6.468-1.741,11.882-1.15,16.799,3.765
			c4.582,4.579,10.606,10.79,11.642,17.392c1.169,7.447-1.573,15.37-4.134,22.243c-2.793,7.497-6.161,14.816-9.41,22.125
			c-7.434,16.72-17.393,32.311-29.084,46.369c-12.679,15.247-27.76,31.701-45.321,41.33c-8.07,4.425-17.438,6.936-26.44,4.047
			c-7.634-2.45-14.74-8.506-15.171-16.964c-0.164-3.205-3.067-5.731-6.329-4.821c-11.009,3.07-21.101,8.357-31.317,13.362
			c-10.37,5.08-20.998,9.581-31.844,13.541c-21.084,7.697-42.817,13.483-64.748,18.194c-22.098,4.746-44.41,8.412-66.739,11.877
			c-11.307,1.755-22.623,3.457-33.929,5.222c-10.728,1.674-21.546,3.262-31.619,7.507c-9.415,3.968-16.418,11.104-25.15,16.143
			c-9.644,5.566-21.476,4.543-32.219,4.804c-12.009,0.291-24.019,0.678-36.03,0.864c-9.97,0.155-22.065,0.271-30.235-6.41
			c-6.459-5.282-8.637-14.152-9.858-22.021c-1.466-9.446-1.883-19.234-2.089-28.777c-0.511-23.68,3.409-46.149,10.019-68.806
			c7.508-25.734,15.266-51.495,25.898-76.144c2.354-5.458,5.152-11.09,4.998-17.191c-0.065-2.568-0.987-4.672-1.684-7.087
			c-0.627-2.169-0.608-4.464-1.344-6.605c-1.744-5.072-7.255-7.894-11.165-11.209c-4.823-4.09-9.604-8.195-14.639-12.027
			c0.825,1.439,1.651,2.878,2.476,4.317c0.073-10.243,6.124-16.364,14.067-21.982c10.438-7.382,21.577-13.705,32.311-20.633
			c4.321-2.789,8.573-5.574,13.009-8.173c4.067-2.383,7.778-5.227,10.218-9.346c4.904-8.278,3.919-18.428,2.327-27.479
			c-1.672-9.507-5.329-19.64-3.963-29.401c1.315-9.394,8.258-16.493,15.246-22.268c7.706-6.369,16.292-11.599,23.696-18.347
			c7.143-6.51,13.278-14.012,19.174-21.641c11.158-14.437,21.656-30.74,37.231-40.866c18.064-11.745,38.937-8.794,59.338-7.197
			c11.805,0.924,23.561,1.708,35.087,4.625c11.412,2.888,21.2,8.294,31.264,14.216c17.96,10.568,35.716,22.383,45.008,41.718
			c20.665,43.002,24.917,99.273,3.721,142.868c-2.802,5.764,5.818,10.84,8.635,5.047c18.998-39.075,18.839-86.288,6.29-127.299
			c-6.199-20.258-14.968-38.802-31.523-52.56c-8.024-6.669-16.805-12.32-25.767-17.632c-9.658-5.724-19.246-11.34-30.053-14.633
			c-11.078-3.375-22.681-4.845-34.195-5.739c-10.585-0.822-21.206-1.919-31.823-2.176c-10.378-0.252-20.796,0.525-30.453,4.575
			c-8.368,3.51-15.801,8.725-22.411,14.911c-13.862,12.973-23.725,29.471-36.068,43.773c-6.315,7.317-13.273,13.638-21.069,19.338
			c-7.777,5.686-15.98,11.261-22.176,18.74c-6.11,7.374-9.639,16.084-9.327,25.741c0.326,10.089,3.589,19.761,4.959,29.702
			c0.57,4.137,0.886,8.554-0.116,12.645c-1.269,5.182-4.459,7.817-8.889,10.395c-10.66,6.204-20.968,13.136-31.419,19.702
			c-8.725,5.481-18.647,11.068-25.306,19.124c-2.635,3.187-4.677,6.769-5.833,10.756c-1.089,3.753-2.416,9.786,0.273,13.033
			c1.781,2.15,4.866,3.805,7.045,5.631c2.21,1.853,4.382,3.75,6.582,5.615c2.261,1.916,4.639,3.702,6.89,5.626
			c2.441,2.086,2.077,3.67,2.765,6.611c0.593,2.533,1.754,4.501,1.567,7.215c-0.204,2.956-1.678,6.104-2.829,8.779
			c-2.675,6.219-5.296,12.453-7.718,18.776c-9.262,24.184-17.024,49.247-23.592,74.295c-6.384,24.346-7.703,49.268-5.942,74.292
			c1.265,17.963,3.666,39.266,22.385,47.373c10.508,4.551,22.112,4.384,33.343,4.115c13.125-0.314,26.25-0.634,39.375-0.955
			c11.908-0.291,22.879-1.251,32.985-8.133c4.478-3.049,8.571-6.639,13.145-9.55c5.154-3.28,10.755-5.42,16.647-6.966
			c11.574-3.038,23.642-4.368,35.453-6.177c12.518-1.918,25.039-3.817,37.538-5.855c48.878-7.971,97.887-18.228,142.954-39.433
			c11.151-5.247,21.876-11.376,33.816-14.705c-2.11-1.607-4.219-3.214-6.329-4.821c0.79,15.469,14.333,26.148,29.012,27.969
			c18.226,2.261,34.547-9.619,47.439-21.022c14.172-12.536,27.061-26.54,38.104-41.914c10.725-14.932,18.483-31.048,25.802-47.831
			c5.789-13.274,13.652-30.48,6.957-44.838c-2.931-6.285-8.911-13.17-14.161-17.691c-5.656-4.871-12.418-6.797-19.797-5.669
			c-13.328,2.037-26.354,8.915-38.446,14.556c-14.965,6.981-31.153,17.667-48.303,14.981c-6.089-0.954-12.003-3.157-17.621-5.628
			c-4.27-1.878-9.135-3.662-12.741-6.707c-5.294-4.47-7.447-12.496-10.7-18.398c-3.513-6.373-6.526-13.049-8.521-20.061
			c-0.932-3.278-4.159-13.51,0.758-15.193C510.883,530.25,508.283,520.587,502.171,522.679L502.171,522.679z"/>
	</g>
</g>
<g>
	<path style="fill:#D2A77B;" d="M346.237,991.88c-11.806-73.729-53.11-142.31-112.759-187.225
		c28.432-3.149,56.216-10.46,83.878-17.748c37.982-10.007,75.965-20.013,113.947-30.02c52.931-13.945,106.868-28.004,161.545-25.432
		c3.404,0.16,6.967,0.435,9.851,2.25c4.321,2.719,5.988,8.098,7.298,13.032c8.863,33.384,17.648,69.681,44.251,91.712
		c-16.534,21.266-33.861,41.915-51.932,61.891c-13.703,15.147-27.875,29.946-43.628,42.948
		c-59.477,49.087-141.396,69.79-217.053,54.854"/>
	<g>
		<path style="fill:#D2A77B;" d="M351.058,990.551c-9.514-58.365-37.004-113.382-77.417-156.502
			c-11.551-12.325-24.179-23.517-37.64-33.711c-0.841,3.106-1.682,6.212-2.524,9.317c33.572-3.829,66.136-12.902,98.726-21.488
			c33.787-8.901,67.574-17.806,101.362-26.705c33.136-8.727,66.424-17.464,100.432-22.082c16.931-2.299,34.046-3.507,51.136-3.179
			c3.747,0.072,7.815-0.145,11.505,0.58c4.141,0.814,6.001,3.436,7.338,7.212c2.255,6.367,3.582,13.17,5.364,19.683
			c7.833,28.625,17.961,58.545,41.37,78.309c0-2.357,0-4.714,0-7.071c-16.554,21.253-33.859,41.912-51.932,61.891
			c-16.979,18.77-34.74,37.113-55.322,51.979c-36.58,26.422-80.266,42.989-125.142,47.683c-25.119,2.627-50.553,1.665-75.352-3.147
			c-6.287-1.22-8.98,8.416-2.658,9.643c45.626,8.853,93.235,5.526,137.276-9.311c21.945-7.393,43.022-17.525,62.343-30.303
			c21.22-14.034,39.805-31.351,57.133-49.895c21.345-22.843,41.517-46.809,60.726-71.469c1.548-1.988,2.262-5.162,0-7.071
			c-21.537-18.183-30.874-45.31-38.182-71.654c-1.834-6.612-3.414-13.305-5.349-19.887c-1.762-5.995-4.616-11.934-10.525-14.771
			c-6.847-3.287-16.033-2.434-23.41-2.451c-8.656-0.02-17.311,0.346-25.939,1.033c-34.537,2.75-68.438,10.43-101.928,19.016
			c-34.584,8.866-69.067,18.14-103.592,27.236c-38.025,10.018-76.193,21.75-115.381,26.219c-5.094,0.581-6.593,6.235-2.524,9.317
			c45.576,34.519,80.306,83.123,98.738,137.202c5.223,15.324,9.119,31.059,11.723,47.035
			C342.448,999.545,352.086,996.857,351.058,990.551L351.058,990.551z"/>
	</g>
</g>
<g>
	<path style="fill:#96745F;" d="M223.5,808.5c27.146,4.162,48.509,20.548,65.394,42.207s26.834,48.079,32.324,74.988
		C342.602,856.267,438.5,803.5,528.5,731.5c-125,74-131,15-287,74c-8.113,3.068-10.117-2.18-13,6"/>
	<g>
		<path style="fill:#96745F;" d="M222.171,813.321c54.522,8.857,84.002,64.445,94.226,113.703c1.053,5.073,8.25,4.431,9.643,0
			c9.431-30.001,31.645-54.132,54.43-74.892c29.238-26.64,61.724-49.528,93.523-72.949c19.574-14.417,39.045-28.977,58.044-44.148
			c4.499-3.593-1.275-10.676-6.059-7.853c-35.406,20.892-72.463,37.445-113.794,40.933c-16.041,1.354-32.155,1.569-48.202,2.851
			c-20.893,1.669-41.602,5.025-61.948,10.063c-15.597,3.862-30.968,8.606-46.13,13.916c-6.862,2.403-14.178,6.454-21.506,6.64
			c-5.974,0.152-8.646,3.15-10.717,8.586c-2.294,6.019,7.37,8.623,9.643,2.658c0.143-0.377,0.638-1.091,0.665-1.471
			c0.069-0.964-0.018,0.114-0.782,0.233c-0.156,0.024,1.175-0.022,1.575,0.002c2.476,0.148,5.053-0.324,7.401-1.053
			c7.765-2.411,15.326-5.641,23.039-8.243c12.999-4.386,26.152-8.328,39.47-11.626c19.805-4.903,39.908-8.2,60.248-9.781
			c31.83-2.473,63.487-2.049,94.322-11.584c25.287-7.82,49.038-20.08,71.763-33.489c-2.02-2.618-4.039-5.235-6.059-7.853
			c-34.123,27.248-69.948,52.228-104.673,78.684c-28.67,21.843-57.655,44.759-79.86,73.431
			c-10.372,13.392-18.937,28.07-24.035,44.288c3.214,0,6.429,0,9.643,0c-10.876-52.403-43.409-111.299-101.21-120.688
			C218.534,802.656,215.825,812.291,222.171,813.321L222.171,813.321z"/>
	</g>
</g>
<g>
	<path style="fill:#4F4E50;" d="M309.963,321.431C314.5,297.5,345.006,261.462,372.5,247.5c53.204-27.018,128.021-18.11,186-4
		c49.515,12.05,97.958,35.199,140,64c46.729,32.012,81.429,87.778,99.292,141.529c9.682,29.135,14.158,59.703,18.46,90.102
		c7.046,49.79,13.758,99.819,13.655,150.105c-0.081,39.623-4.916,80.77-25.764,114.465s-61.157,57.861-99.895,49.53
		c-26.004-5.592-47.602-24.808-61.097-47.729c-13.495-22.921-19.785-49.348-23.892-75.627c-0.201-1.286-0.397-2.602-0.164-3.882
		c0.495-2.719,2.767-4.697,4.823-6.544c23.048-20.698,34.276-51.251,43.248-80.901c3.645-12.046,7.094-24.462,6.238-37.018
		s-6.816-25.462-17.899-31.425c-18.678-10.051-40.702,2.809-59.978,11.661c-13.292,6.104-27.792,10.417-42.385,9.429
		c-14.593-0.989-29.293-7.946-37.027-20.361c-9.028-14.49-7.202-32.943-5.475-49.928c4.932-48.521,5.903-100.112-17.249-143.037
		c-16.385-30.379-44.505-54.231-77.15-65.442c-32.644-11.211-69.486-9.667-101.078,4.235"/>
	<g>
		<path style="fill:#4F4E50;" d="M314.784,322.76c2.48-12.194,9.514-23.285,16.97-33.046c8.877-11.622,19.568-22.364,31.554-30.778
			c24.427-17.15,55.701-22.738,84.979-23.746c31.338-1.079,62.706,3.028,93.302,9.569c33.653,7.196,66.104,18.248,96.993,33.458
			c29.497,14.525,59.215,31.645,82.937,54.671c22.521,21.86,40.446,48.178,54.404,76.206c15.28,30.68,24.555,63.237,30.288,96.951
			c6.296,37.025,11.277,74.479,14.937,111.854c3.5,35.743,5.677,72.199,2.01,108.02c-3.276,32.005-12.484,65.495-34.331,90.007
			c-19.152,21.488-47.764,36.95-77.211,33.505c-30.834-3.607-54.942-27.62-68.387-54.215c-7.808-15.445-12.591-32.262-16.033-49.167
			c-0.828-4.067-1.576-8.151-2.264-12.245c-0.302-1.795-1.281-4.694-0.943-6.52c0.342-1.848,2.17-3.104,3.464-4.298
			c5.59-5.158,10.582-10.793,15.073-16.933c9.092-12.431,15.625-26.537,21.035-40.899c5.824-15.464,11.606-31.856,14.023-48.24
			c2.193-14.868,0.416-30.506-9.321-42.519c-9.625-11.876-24.742-14.768-39.129-11.598c-16.591,3.656-30.905,13.492-46.846,18.944
			c-15.624,5.344-33.392,7.128-48.373-1.118c-14.978-8.245-19.826-23.361-19.689-39.648c0.139-16.5,2.885-32.974,3.737-49.456
			c1.696-32.841-0.038-66.901-11.93-97.904c-22.826-59.51-82.85-98.508-146.751-93.104c-16.176,1.368-31.754,5.397-46.642,11.834
			c-5.891,2.547-0.804,11.165,5.047,8.635c31.98-13.826,69.053-14.596,101.582-2.15c28.836,11.033,53.58,32.657,68.684,59.533
			c16.912,30.092,21.086,65.232,20.497,99.232c-0.3,17.293-2.154,34.407-3.608,51.621c-1.312,15.534-1.218,32.774,8.216,46.019
			c8.787,12.337,22.996,19.135,37.819,20.753c17.484,1.908,34.569-3.974,50.159-11.294c13.957-6.553,31.305-16.892,47.292-12.165
			c16.267,4.809,21.241,23.307,19.973,38.39c-1.443,17.174-8.103,34.756-14.099,50.82c-5.544,14.851-12.514,29.546-22.411,42.028
			c-2.462,3.105-5.114,6.067-7.927,8.859c-2.57,2.55-5.624,4.769-7.668,7.798c-4.277,6.339-1.098,15.282,0.173,22.168
			c3.14,17.014,7.565,33.781,14.479,49.676c12.352,28.397,34.51,54.051,64.694,63.804c28.671,9.265,59.72,0.495,83.163-17.299
			c56.1-42.583,58.732-120.527,55.239-184.759c-2.1-38.617-7.323-76.975-12.734-115.241c-5.081-35.926-10.71-71.763-23.882-105.763
			c-11.503-29.691-27.052-57.775-46.794-82.788c-20.645-26.157-45.888-45.955-74.378-62.953
			c-58.431-34.861-124.19-55.793-192.036-61.173c-31.159-2.471-63.605-1.328-93.506,8.545
			c-28.549,9.426-51.654,28.222-69.261,52.402c-7.161,9.834-13.759,21.005-16.211,33.059
			C303.864,326.384,313.501,329.072,314.784,322.76L314.784,322.76z"/>
	</g>
</g>
<g>
	<path style="fill:#4F4E50;" d="M897.5,517.5c4.665,6.91,2.216,25.714,5.528,33.365c3.247,7.5,10.163,12.613,15.994,18.34
		c23.855,23.426,38.507,55.732,27.477,87.295s-46.008,61.898-77.426,73.334c-7.858,2.86-19.194,3.468-22.032-4.398
		c-0.991-2.747-0.509-5.779-0.015-8.656c3.211-18.716,6.421-37.433,9.632-56.149c-4.179,12.74-9.044,25.255-14.567,37.473
		c6.055-14.16,9.972-29.232,11.578-44.549c-3.483,9.529-6.965,19.059-10.448,28.588c6.519-18.727,7.418-39.37,2.551-58.593
		c-0.117,11.138-0.234,22.275-0.351,33.413c-4.284-17.246-0.638-35.414-2.01-53.131c-2.382-30.746-26.03-71.106-19.91-101.331
		c24.172-5.452,57.083,12.6,74.877,29.845c-11.94-23.494-47.11-30.863-67.477-14.138c4.467-9.729,11.04-22.466,21.6-20.707
		c20.918,3.484,47.88,9.878,46,31"/>
	<g>
		<path style="fill:#4F4E50;" d="M893.183,520.024c4.073,6.705,2.473,17,3.376,24.527c1.228,10.236,7.06,17.129,14.426,23.963
			c16.389,15.206,30.317,34.187,33.627,56.846c3.35,22.937-7.253,44.089-22.048,60.917c-14.375,16.351-32.993,30.537-53.489,38.241
			c-4.277,1.607-9.894,3.434-14.422,1.741c-6.087-2.277-1.945-13.163-1.144-17.831c2.657-15.489,5.314-30.979,7.971-46.468
			c1.076-6.273-7.59-8.862-9.643-2.658c-4.079,12.328-8.744,24.432-14.063,36.279c3.046,1.284,6.093,2.569,9.139,3.853
			c6.182-14.702,9.999-30.037,11.756-45.878c0.66-5.953-8.021-6.256-9.821-1.329c-3.483,9.529-6.965,19.059-10.448,28.588
			c3.214,0.886,6.429,1.772,9.643,2.658c6.689-19.791,7.491-40.969,2.551-61.251c-1.35-5.542-9.763-4.259-9.821,1.329
			c-0.117,11.138-0.234,22.275-0.351,33.413c3.274-0.443,6.548-0.886,9.821-1.329c-3.518-15.172-1.143-30.706-1.548-46.093
			c-0.321-12.198-3.124-23.961-6.617-35.6c-3.576-11.914-7.728-23.66-10.819-35.717c-2.851-11.122-5.087-22.946-2.936-34.394
			c-1.164,1.164-2.328,2.328-3.492,3.492c12.589-2.61,25.982,1.293,37.392,6.55c11.954,5.508,23.101,12.911,32.621,22.009
			c4.15,3.966,10.513-1.032,7.853-6.059c-14.118-26.677-52.042-33.637-75.33-15.15c2.618,2.02,5.235,4.039,7.853,6.059
			c2.725-5.892,6.065-14.655,12.349-17.641c3.059-1.454,6.606-0.278,9.775,0.328c3.602,0.689,7.189,1.466,10.732,2.414
			c11.422,3.055,26.333,8.469,25.427,22.668c-0.41,6.426,9.591,6.401,10,0c1.217-19.073-16.956-28.087-32.768-32.311
			c-7.934-2.12-18.698-5.831-26.628-2.462c-8.911,3.785-13.687,13.668-17.521,21.957c-2.447,5.289,3.365,9.622,7.853,6.059
			c18.482-14.672,48.795-7.337,59.624,13.126c2.618-2.02,5.235-4.039,7.853-6.059c-19.982-19.096-51.129-37.062-79.742-31.131
			c-1.569,0.325-3.193,1.902-3.492,3.492c-4.623,24.61,5.749,49.38,12.862,72.491c3.714,12.066,6.934,24.14,7.171,36.832
			c0.3,16.032-1.778,31.986,1.888,47.798c1.292,5.571,9.763,4.236,9.821-1.329c0.117-11.138,0.234-22.275,0.351-33.413
			c-3.274,0.443-6.548,0.886-9.821,1.329c4.539,18.634,3.585,37.781-2.551,55.934c-2.077,6.145,7.458,8.636,9.643,2.658
			c3.483-9.529,6.965-19.059,10.448-28.588c-3.274-0.443-6.548-0.886-9.821-1.329c-1.654,14.904-5.591,29.407-11.399,43.219
			c-2.176,5.176,6.82,9.017,9.139,3.853c5.673-12.635,10.721-25.518,15.071-38.667c-3.214-0.886-6.429-1.772-9.643-2.658
			c-2.768,16.135-5.535,32.27-8.303,48.404c-1.037,6.047-3.259,13.021-1.313,19.06c1.595,4.949,5.932,8.268,10.881,9.426
			c10.512,2.46,21.397-2.683,30.559-7.264c11.191-5.595,21.589-12.787,31.08-20.92c18.209-15.603,35.281-36.801,39.388-61.059
			c4.247-25.083-5.263-49.53-20.653-69.085c-4.674-5.938-9.891-11.284-15.42-16.421c-4.4-4.088-9.488-8.471-11.04-14.514
			c-2.656-10.342,0.597-22.41-5.199-31.953C898.481,509.484,889.83,514.503,893.183,520.024L893.183,520.024z"/>
	</g>
</g>
<g>
	<g>
		<path style="fill:#E1E1D3;" d="M272.133,895.655c-0.675,1.997-1.351,3.994-2.026,5.991c-0.839,2.48,0.963,5.575,3.492,6.151
			c2.769,0.631,5.253-0.837,6.151-3.492c0.675-1.997,1.351-3.994,2.026-5.991c0.839-2.48-0.963-5.575-3.492-6.151
			C275.514,891.532,273.031,893,272.133,895.655L272.133,895.655z"/>
	</g>
</g>
<g>
	<g>
		<path style="fill:#E1E1D3;" d="M300.267,884.513c-0.122-0.168-0.234-0.341-0.336-0.521c-0.243-0.477-0.206-0.359,0.111,0.352
			c0.029-0.042-0.262-0.897-0.256-0.894c0.081,0.768,0.106,0.955,0.075,0.561c-0.014-0.155-0.02-0.309-0.018-0.465
			c0.03-0.549-0.003-0.415-0.1,0.403c0.034-0.204,0.079-0.406,0.136-0.605c0.643-2.531-0.823-5.543-3.492-6.151
			c-2.598-0.592-5.462,0.78-6.151,3.492c-0.757,2.981-0.365,6.301,1.396,8.873c1.475,2.154,4.459,3.329,6.841,1.794
			C300.616,889.972,301.847,886.822,300.267,884.513L300.267,884.513z"/>
	</g>
</g>
<g>
	<g>
		<path style="fill:#E1E1D3;" d="M299.517,881.481c-0.052-0.06-0.104-0.121-0.155-0.181c0.261,0.337,0.521,0.675,0.782,1.012
			c-0.245-0.322-0.44-0.652-0.605-1.021c0.168,0.398,0.336,0.796,0.504,1.194c-0.145-0.378-0.242-0.75-0.302-1.15
			c0.06,0.443,0.119,0.886,0.179,1.329c-0.038-0.403-0.031-0.786,0.022-1.187c-0.06,0.443-0.119,0.886-0.179,1.329
			c0.026-0.157,0.06-0.312,0.105-0.465c0.649-2.53-0.828-5.544-3.492-6.151c-2.604-0.593-5.455,0.782-6.151,3.492
			c-0.835,3.252,0.066,6.362,2.221,8.868c1.711,1.99,5.338,1.888,7.071,0C301.463,886.433,301.343,883.604,299.517,881.481
			L299.517,881.481z"/>
	</g>
</g>
<g>
	<path style="fill:#FFFFFF;" d="M660.603,852.337c19.239,4.508,40.036,9.986,52.076,25.654
		c8.174,10.637,10.936,24.341,13.468,37.515c2.71,14.101,5.248,29.49-1.47,42.18c-5.172,9.77-14.948,16.113-24.476,21.719
		c-36.835,21.668-76.891,39.341-107.43,69.236c-10.507,10.286-19.681,21.837-29.618,32.674
		c-51.709,56.392-124.932,92.551-201.142,99.326c-11.252,1-23.125,1.271-33.225-3.788c-6.601-3.307-11.944-8.66-18.232-12.529
		c-9.161-5.637-20.249-8.082-28.415-15.082c-11.157-9.564-14.7-25.754-25.588-35.623c-6.457-5.853-14.921-8.943-22.066-13.934
		c-14.046-9.812-22.277-27.381-20.827-44.453c-4.792,5.503-6.508,13.525-4.385,20.507c-1.613-27.768-0.97-55.74,3.03-83.265
		c3.296-22.679,11.093-48.746,30.11-57.209c4.255-1.893,8.864-3.295,12.381-6.347c6.916-6.003,7.071-16.411,8.054-25.515
		c0.983-9.105,5.227-19.86,14.319-20.955c6.454-0.777,15.506-5.8,18.331,0.055s10.232,15.545,11,22c2.473,20.791,8.647,36.802,19,55
		c1.145-11.15,1.55-3.757-3-14c4.257,17.785-0.836,27.345,8.005,43.354c2.01,3.641,4.161,7.258,7.055,10.244
		c6.74,6.955,16.718,9.713,26.34,10.815c20.057,2.297,40.268-1.338,60.124-4.986c41.402-7.607,83.95-15.781,119.383-38.507
		c14.255-9.143,26.991-20.429,39.661-31.665c19.612-17.392,39.331-34.896,55.666-55.396c8.767-11.002,17.469-23.525,30.893-27.731"
		/>
	<g>
		<path style="fill:#FFFFFF;" d="M659.274,857.159c23.028,5.417,47.39,12.362,56.357,36.795c4.378,11.929,6.99,25.519,8.049,38.167
			c1.127,13.455-1.929,25.052-12.536,33.946c-9.719,8.149-21.799,13.904-32.846,20.012c-11.519,6.369-23.111,12.61-34.482,19.242
			c-22.167,12.928-43.374,27.554-60.995,46.359c-9.425,10.058-18.061,20.824-27.595,30.783
			c-8.505,8.884-17.559,17.243-27.077,25.032c-19.112,15.641-40.238,28.879-62.514,39.524
			c-21.806,10.42-44.859,18.233-68.492,23.287c-12.141,2.596-24.448,4.49-36.827,5.477c-6.298,0.502-12.784,0.838-19.05-0.203
			c-7.101-1.179-12.819-4.345-18.512-8.586c-5.923-4.413-11.549-8.362-18.313-11.41c-6.379-2.875-13.358-5.303-18.769-9.88
			c-9.415-7.964-13.23-20.666-20.687-30.221c-8.764-11.23-22.836-14.48-32.774-24.141c-9.705-9.433-14.472-22.687-13.555-36.112
			c0.281-4.116-5.825-6.884-8.536-3.536c-5.91,7.302-8.098,16.214-5.671,25.371c1.415,5.337,10.144,4.408,9.821-1.329
			c-1.451-25.835-1.075-51.812,2.242-77.497c2.291-17.744,5.945-39.018,19.136-52.239c6.806-6.821,17.041-7.721,23.716-14.533
			c6.919-7.062,7.315-17.384,8.332-26.62c0.426-3.869,1.195-7.803,2.978-11.301c2.281-4.473,4.904-5.618,9.588-6.583
			c2.196-0.452,8.921-3.533,10.992-2.166c0.592,0.391,1.751,3.583,2.214,4.367c1.188,2.013,2.437,3.99,3.617,6.008
			c2.782,4.756,4.261,8.733,5.05,14.174c0.883,6.088,2.135,12.117,3.851,18.027c3.534,12.163,8.983,23.644,15.192,34.649
			c2.64,4.679,8.819,2.087,9.317-2.524c0.29-2.681,1.266-5.986,0.451-8.668c-0.822-2.706-2.955-5.288-4.134-7.855
			c-2.456-5.349-10.332-1.432-9.139,3.853c2.773,12.284,0.66,25.334,5.156,37.26c4.915,13.035,13.529,23.432,26.932,27.939
			c14.58,4.903,31.169,4.152,46.213,2.402c15.869-1.847,31.608-5,47.284-8.041c28.975-5.62,57.992-12.552,84.652-25.561
			c27.698-13.516,50.384-34.837,73.022-55.34c13.093-11.858,25.888-24.117,37.276-37.646c9.461-11.24,18.08-26.416,32.743-31.392
			c6.061-2.057,3.46-11.719-2.658-9.643c-12.142,4.12-20.605,13.238-28.382,23.033c-9.188,11.572-18.791,22.586-29.356,32.934
			c-10.459,10.243-21.432,19.944-32.386,29.649c-11.444,10.139-22.962,20.283-35.77,28.692
			c-23.845,15.655-51.196,24.455-78.798,30.807c-14.19,3.266-28.514,5.918-42.835,8.536c-15.566,2.846-31.271,5.56-47.157,5.128
			c-7.828-0.213-16.038-0.954-23.35-3.981c-7.838-3.245-12.575-9.429-16.281-16.855c-6.256-12.537-3.641-27.195-6.662-40.58
			c-3.046,1.284-6.092,2.569-9.139,3.853c0.696,1.515,1.396,3.03,2.254,4.462c0.219,0.364,1.338,2.088,1.048,1.467
			c-0.557-1.193-0.115-0.941-0.355,0.286c-0.336,1.716-0.442,3.528-0.63,5.262c3.106-0.841,6.212-1.682,9.317-2.524
			c-6.073-10.762-11.327-21.882-14.628-33.826c-3-10.852-3.073-21.835-8.74-31.773c-4.193-7.354-7.593-17.335-17.573-16.563
			c-4.393,0.34-8.729,1.94-13.037,2.809c-4.466,0.901-8.169,3.148-11.039,6.705c-6.583,8.16-6.435,18.221-7.901,28.05
			c-0.701,4.7-1.857,9.789-5.639,13.001c-4.315,3.663-10.498,4.677-15.272,7.646c-17.083,10.625-23.889,32.415-27.349,51.091
			c-5.568,30.058-6.075,61.18-4.366,91.62c3.274-0.443,6.548-0.886,9.821-1.329c-1.448-5.463-0.509-11.184,3.099-15.642
			c-2.845-1.178-5.69-2.357-8.536-3.536c-0.849,12.423,2.628,25.11,9.833,35.297c3.42,4.836,7.475,9.07,12.246,12.588
			c5.475,4.037,11.724,6.781,17.436,10.437c10.944,7.007,15.101,19.05,22.063,29.392c3.278,4.87,7.093,9.189,11.911,12.584
			c5.747,4.049,12.395,6.421,18.726,9.361c12.137,5.636,21.188,16.346,34.452,19.651c13.236,3.298,27.457,1.302,40.772-0.49
			c25.989-3.499,51.473-10.261,75.776-20.116c24.212-9.819,47.235-22.426,68.369-37.804c21.933-15.959,40.828-34.662,58.62-55.055
			c9.395-10.769,19.061-21.164,30.136-30.243c11.083-9.086,23.144-16.937,35.441-24.268c11.794-7.031,23.874-13.565,35.899-20.19
			c11.964-6.592,24.58-12.857,35.403-21.258c11.75-9.121,18.079-21.355,18.215-36.333c0.07-7.713-1.258-15.417-2.677-22.973
			c-1.449-7.714-2.919-15.489-5.452-22.935c-4.536-13.335-12.649-24.247-24.785-31.565c-11.916-7.184-25.697-10.639-39.111-13.794
			C655.674,846.043,653.002,855.683,659.274,857.159L659.274,857.159z"/>
	</g>
</g>
<g>
	<g>
		<path style="fill:#1E120D;" d="M310.35,323.214c-12.576-27.235-5.501-58.714,10.253-83.045
			c17.987-27.78,46.931-44.595,78.204-53.614c16.857-4.862,34.238-7.665,51.684-9.314c17.905-1.693,36.217-2.942,54.203-2.235
			c9.68,0.38,19.229,1.762,28.382,5.031c8.71,3.111,16.805,7.705,24.885,12.147c16.031,8.813,32.582,16.523,49.815,22.694
			c39.131,14.013,80.943,20.341,122.464,18.687c6.413-0.255,6.446-10.257,0-10c-38.924,1.55-77.851-4.028-114.744-16.564
			c-18.81-6.391-36.643-14.744-54.033-24.303c-8.079-4.441-16.229-8.824-24.903-12.009c-9.326-3.424-19.193-4.984-29.085-5.549
			c-18.866-1.077-38.193,0.324-56.984,2.1c-18.047,1.706-36.082,4.476-53.54,9.443c-32.476,9.24-62.379,26.324-82.142,54.245
			c-19.931,28.158-27.949,65.16-13.093,97.332C304.41,334.097,313.033,329.023,310.35,323.214L310.35,323.214z"/>
	</g>
</g>
<g>
	<g>
		<path style="fill:#1E120D;" d="M303.024,333.817c18.929-11.626,41.699-15.351,63.594-15.018
			c21.288,0.324,42.808,3.571,62.639,11.557c19.787,7.968,37.168,21.211,48.462,39.466c13.047,21.089,18.939,46.426,22.712,70.674
			c4.722,30.357,4.536,61.574-0.279,91.903c-0.999,6.296,8.635,9.007,9.643,2.658c4.544-28.625,5.312-57.701,1.766-86.486
			c-3.273-26.568-9.033-54.153-21.821-77.924c-22.667-42.135-69.335-59.177-114.835-61.571
			c-26.314-1.384-54.066,2.065-76.928,16.107C292.502,328.545,297.519,337.198,303.024,333.817L303.024,333.817z"/>
	</g>
</g>
<g>
	<g>
		<path style="fill:#1E120D;" d="M340.817,272.024c11.775-20.146,32.956-31.222,54.901-36.979
			c27.589-7.239,56.863-7.266,85.108-4.865c31.547,2.682,62.8,8.975,93.241,17.595c31.927,9.041,63.415,20.694,92.561,36.663
			c33.247,18.217,61.533,43.296,83.515,74.191c20.871,29.333,36.119,62.306,47.526,96.358
			c11.856,35.395,19.645,72.001,25.356,108.849c3.576,23.073,6.297,46.275,8.202,69.545c1.865,22.791,3.386,45.782,2.656,68.659
			c-1.102,34.544-9.332,69.616-28.666,98.68c-16.518,24.832-41.015,43.092-68.75,53.697c-7.608,2.909-15.399,5.279-23.296,7.263
			c-6.238,1.567-3.595,11.214,2.658,9.643c30.919-7.769,60.249-22.357,82.32-45.745c22.013-23.327,35.214-53.412,41.463-84.62
			c4.591-22.928,4.94-46.372,3.981-69.657c-0.964-23.398-2.852-46.769-5.522-70.032c-4.782-41.676-11.707-83.312-23.034-123.746
			c-19.94-71.179-54.99-141.113-116.517-184.976c-30.435-21.697-65.67-36.563-101.072-48.106
			c-31.053-10.125-63.027-17.588-95.407-21.915c-30.618-4.092-61.971-5.506-92.578-0.555c-24.424,3.951-49.831,12.759-67.098,31.29
			c-3.888,4.173-7.305,8.797-10.182,13.719C328.929,272.544,337.568,277.583,340.817,272.024L340.817,272.024z"/>
	</g>
</g>
<g>
	<g>
		<path style="fill:#1E120D;" d="M821.634,501.941c22.141-10.145,54.753-10.481,73.219,7.623
			c9.403,9.219,8.373,21.119,10.537,33.138c2.169,12.048,9.714,20.187,18.74,27.836c9.262,7.849,17.222,15.883,21.67,27.447
			c4.124,10.722,5.326,22.375,4.12,33.765c-2.733,25.813-17.6,50.916-34.912,69.733c-19.22,20.891-48.101,35.504-76.371,24.384
			c-5.991-2.356-8.589,7.31-2.658,9.643c27.041,10.637,56.622,0.009,77.434-18.421c20.573-18.218,37.438-44.61,44.074-71.341
			c6.376-25.681,2.128-55.171-17.31-74.371c-9.047-8.936-21.538-15.632-24.64-28.887c-1.662-7.099-1.401-14.504-3.084-21.609
			c-1.439-6.078-4.4-11.554-8.5-16.247c-9.809-11.229-25.167-16.793-39.576-18.721c-16.402-2.194-32.781,0.515-47.79,7.392
			C810.744,495.984,815.819,504.606,821.634,501.941L821.634,501.941z"/>
	</g>
</g>
<g>
	<g>
		<path style="fill:#1E120D;" d="M306.666,320.54c-7.672,2.291-13.062,7.68-18.085,13.666c-6.127,7.302-12.301,14.545-18.744,21.572
			c-12.824,13.988-26.393,27.293-40.632,39.839c-12.749,11.234-27.753,20.679-29.197,39.171c-0.7,8.965,1.489,18.005,3.412,26.693
			c2.252,10.174,4.653,20.314,7.177,30.425c1.558,6.24,11.204,3.597,9.643-2.658c-2.366-9.478-4.626-18.982-6.753-28.517
			c-1.775-7.953-3.918-16.085-3.571-24.304c0.702-16.638,17.883-26.149,29.065-36.137c12.805-11.438,25.059-23.493,36.704-36.11
			c5.721-6.198,11.293-12.532,16.715-18.993c4.754-5.665,9.491-12.785,16.925-15.004
			C315.476,328.346,312.856,318.691,306.666,320.54L306.666,320.54z"/>
	</g>
</g>
<g>
	<g>
		<path style="fill:#1E120D;" d="M212.937,488.263c-13.554,8.918-27.107,17.836-40.661,26.754
			c-6.425,4.227-13.014,8.282-19.27,12.756c-4.749,3.396-9.424,7.318-11.99,12.689c-4.481,9.381-0.189,18.554,7.014,24.977
			c6.165,5.498,15.875,10.141,17.842,18.835c1.42,6.274,11.063,3.619,9.643-2.658c-1.884-8.327-8.425-13.726-14.844-18.732
			c-5.572-4.345-14.649-10.402-10.407-18.597c2.539-4.904,7.968-8.069,12.422-11.004c5.96-3.929,11.927-7.848,17.891-11.772
			c12.469-8.205,24.939-16.409,37.408-24.614C223.338,493.375,218.334,484.712,212.937,488.263L212.937,488.263z"/>
	</g>
</g>
<g>
	<g>
		<path style="fill:#1E120D;" d="M166.183,579.976c-20.375,36.631-30.522,77.821-37.4,118.874
			c-6.076,36.266-16.961,87.078,18.178,112.669c15.31,11.15,34.893,11.407,52.843,8.321c21.357-3.672,42.176-11.255,62.892-17.444
			c44.012-13.149,88.581-27.381,134.788-29.639c12.484-0.61,25.077,0.358,37.514-1.066c12.44-1.424,24.031-5.712,35.66-10.137
			c21.837-8.311,43.568-17.089,61.814-32.043c4.98-4.082-2.13-11.12-7.071-7.071c-15.449,12.661-34.066,20.51-52.547,27.617
			c-9.811,3.773-19.649,7.801-29.91,10.196c-10.581,2.469-21.413,2.167-32.202,2.189c-42.92,0.087-84.667,10.792-125.573,22.828
			c-21.02,6.185-41.974,12.595-62.991,18.792c-16.906,4.985-35.741,10.253-53.41,6.33c-18.297-4.063-29.815-18.645-34.253-36.28
			c-5.104-20.283-0.9-42.045,2.25-62.306c6.782-43.625,16.406-87.863,38.053-126.782
			C177.948,579.394,169.315,574.345,166.183,579.976L166.183,579.976z"/>
	</g>
</g>
<g>
	<g>
		<path style="fill:#1E120D;" d="M586.677,600.31c10.872-6.125,22.11-11.589,33.741-16.123c5.154-2.009,10.368-3.867,15.637-5.55
			c5.725-1.829,12.489-4.323,18.463-2.18c9.795,3.514,13.49,17.058,14.584,26.228c1.335,11.191-0.584,22.484-3.955,33.152
			c-6.621,20.955-18.827,40.657-32.538,57.706c-13.699,17.033-29.94,32.503-48.221,44.553c-9.397,6.194-20.643,11.78-32.157,8.77
			c-4.953-1.295-8.87-3.986-11.743-8.209c-2.261-3.324-5.606-8.03-5.99-12.157c-0.591-6.354-10.597-6.415-10,0
			c0.83,8.914,7.304,19.633,14.463,24.972c8.96,6.683,21.052,7.561,31.55,4.51c12.476-3.625,23.287-11.87,33.333-19.809
			c9.977-7.884,19.276-16.627,27.777-26.083c17.249-19.186,32.183-41.545,41.186-65.822c4.68-12.618,7.621-26.406,6.459-39.914
			c-0.965-11.216-4.348-23.891-12.812-31.899c-11.563-10.94-26.827-5.757-40.051-1.114c-15.493,5.439-30.471,12.276-44.775,20.334
			C576.023,594.834,581.058,603.476,586.677,600.31L586.677,600.31z"/>
	</g>
</g>
<g>
	<g>
		<path style="fill:#1E120D;" d="M212.052,818.383c27.659,0.987,51.467,19.191,66.875,41.128
			c17.648,25.126,27.227,54.956,37.905,83.448c6.835,18.238,13.669,36.475,20.504,54.713c1.752,4.675,7.926,4.792,9.643,0
			c0.279-0.78,0.559-1.559,0.838-2.339c2.175-6.069-7.484-8.682-9.643-2.658c-0.279,0.78-0.559,1.559-0.838,2.339
			c3.214,0,6.429,0,9.643,0c-12.408-33.109-23.969-66.703-37.63-99.32c-11.656-27.832-27.052-54.727-52.493-72.089
			c-13.288-9.068-28.677-14.647-44.804-15.222C205.616,808.154,205.625,818.154,212.052,818.383L212.052,818.383z"/>
	</g>
</g>
<g>
	<g>
		<path style="fill:#1E120D;" d="M605.532,733.504c2.578,10.781,6.728,21.214,10.517,31.616c3.78,10.377,7.755,20.685,12.192,30.801
			c4.345,9.908,9.179,19.617,14.807,28.863c2.803,4.605,5.798,9.095,9.017,13.42c2.424,3.257,5.43,9.028,9.765,9.779
			c2.309,0.4,4.346-0.293,5.647-2.298c0.958-1.476,1.164-3.113,0.611-4.772c-0.721-2.159-2.526-3.599-4.821-3.671
			c-0.129-0.004-0.258-0.008-0.388-0.012c-6.437-0.201-6.43,9.8,0,10c0.129,0.004,0.258,0.008,0.388,0.012
			c-1.607-1.224-3.214-2.447-4.821-3.671c0.055,0.166,0.111,0.333,0.166,0.499c0.168-1.284,0.336-2.568,0.504-3.853
			c-0.091,0.14-0.182,0.28-0.273,0.421c1.882-0.766,3.764-1.532,5.647-2.298c1.193,0.206,0.478,0.343-0.375-0.806
			c-0.932-1.255-1.957-2.447-2.901-3.696c-1.37-1.812-2.693-3.66-3.982-5.53c-2.898-4.205-5.605-8.539-8.147-12.969
			c-4.967-8.655-9.299-17.662-13.234-26.828c-3.903-9.091-7.374-18.368-10.745-27.668c-3.58-9.877-7.483-19.767-9.93-29.998
			C613.679,724.59,604.034,727.238,605.532,733.504L605.532,733.504z"/>
	</g>
</g>
<g>
	<g>
		<path style="fill:#1E120D;" d="M293.057,873.474c-17.149-10.944-41.136,2.26-41.898,22.234c-0.333,8.717,5.913,25.12-6.013,28.181
			c-5.209,1.337-10.741,0.869-15.909,2.461c-5.225,1.61-9.416,4.874-12.539,9.325c-7.264,10.355-9.278,25.092-11.871,37.147
			c-3.209,14.919-5.599,30.016-7.22,45.19c-2.372,22.2-3.801,46.523,6.526,67.106c4.968,9.901,12.866,17.28,22.858,21.963
			c5.685,2.664,10.808,5.202,15.08,9.954c4.207,4.68,7.317,10.229,10.92,15.361c13.317,18.967,32.059,33.291,53.276,42.413
			c46.213,19.87,97.64,14.615,143.268-4.196c25.716-10.602,49.722-24.805,72.543-40.631c11.359-7.877,22.544-16.149,32.585-25.678
			c9.932-9.426,18.329-20.235,26.954-30.825c8.578-10.532,17.528-21.109,28.511-29.234c10.977-8.121,23.364-14.087,35.516-20.203
			c13.681-6.886,27.39-13.721,41.043-20.663c10.606-5.392,21.08-11.112,30.52-18.404c8.895-6.871,16.893-15.228,21.777-25.467
			c5.687-11.922,6.893-25.076,5.169-38.058c-3.38-25.449-15.755-52.367-36.335-68.368c-18.344-14.263-51.268-22.937-68.06-1.852
			c-16.053,20.157-30.049,41.748-47.134,61.127c-17.425,19.765-37.263,37.419-61.03,49.165
			c-26.116,12.907-55.505,20.983-83.815,27.46c-28.836,6.596-58.489,10.207-88.078,8.017c-3.729-0.276-7.454-0.64-11.164-1.112
			c-2.036-0.259-4.067-0.558-6.093-0.885c-0.95-0.153-4.379-0.2-5.067-0.921c-0.819-0.857-0.669-4.683-0.955-6.026
			c-0.679-3.184-1.695-6.263-2.935-9.27c-4.235-10.278-11.262-19.147-20.128-25.829c-8.622-6.498-18.581-10.32-29.281-11.564
			c-6.381-0.742-6.327,9.265,0,10c21.122,2.455,39.154,19.903,42.972,40.689c0.994,5.412,1.685,9.867,7.668,11.643
			c6.667,1.979,14.373,2.341,21.258,2.968c13.653,1.244,27.405,1.223,41.072,0.219c28.057-2.061,55.706-8.061,82.659-15.961
			c25.518-7.48,51.461-15.824,73.886-30.468c20.075-13.109,37.162-30.175,52.486-48.496c8.004-9.568,15.579-19.493,23.011-29.509
			c3.261-4.395,6.493-8.811,9.723-13.229c3.835-5.247,7.463-11.832,12.61-15.924c9.773-7.77,26.293-4.802,36.797-0.349
			c11.606,4.92,21.254,13.602,28.36,23.921c13.835,20.089,23.958,49.812,15.338,73.776c-7.564,21.028-28.887,33.056-47.633,42.719
			c-12.757,6.576-25.634,12.929-38.454,19.381c-11.809,5.944-23.871,11.608-34.969,18.838
			c-21.655,14.109-35.685,35.289-52.479,54.358c-17.803,20.214-40.458,35.656-63.224,49.763
			c-42.035,26.048-90.592,46.112-140.969,41.194c-21.86-2.134-43.525-9.022-62.096-20.84c-9.167-5.834-17.462-12.932-24.566-21.161
			c-7.405-8.577-12.304-19.272-20.501-27.161c-8.185-7.877-19.999-9.775-27.802-18.14c-6.969-7.471-10.265-17.645-11.954-27.527
			c-4.082-23.883,0.286-49.821,4.562-73.349c2.452-13.492,4.907-27.699,9.677-40.6c1.705-4.612,4.266-9.59,8.998-11.676
			c4.717-2.08,10.297-1.59,15.296-2.511c11.003-2.027,16.682-10.504,16.501-21.365c-0.152-9.103-4.01-19.742,3.203-27.141
			c5.818-5.968,15.327-7.923,22.498-3.346C293.45,885.581,298.472,876.929,293.057,873.474L293.057,873.474z"/>
	</g>
</g>
<g>
	<g>
		<path style="fill:#87682C;" d="M553.943,741.4c1.632,0.874,0.489,7.299,0.239,8.689c-0.626,3.475-2.041,6.879-4.661,9.319
			c-2.19,2.039-5.546,3.897-8.428,2.256c-3.023-1.722-3.766-4.899-2.772-7.835c2.068-6.109-7.587-8.731-9.643-2.658
			c-2.347,6.932,0.32,13.378,5.801,18.025c5.483,4.649,13.259,3.643,18.934-0.159c6.133-4.109,9.595-10.811,10.684-17.983
			c0.94-6.192,1.284-14.868-5.106-18.288C553.318,729.73,548.261,738.359,553.943,741.4L553.943,741.4z"/>
	</g>
</g>
<g>
	<g>
		<path style="fill:#87682C;" d="M572.496,737.438c5.216,3.966,7.229,10.995,4.832,17.101c-1.387,3.533-10.44,12.487-12.467,4.706
			c-1.621-6.223-11.269-3.584-9.643,2.658c3.731,14.322,21.263,11.456,28.353,1.753c8.434-11.542,4.911-26.536-6.029-34.854
			C572.421,724.908,567.434,733.589,572.496,737.438L572.496,737.438z"/>
	</g>
</g>
</svg>
